<?xml version="1.0" encoding="UTF-8"?>
<svg xmlns="http://www.w3.org/2000/svg" viewBox="0 0 960 468" width="960" height="468">
  <style>
    .title { font: 600 18px system-ui, sans-serif; fill: #0f172a; }
    .label { font: 14px system-ui, sans-serif; fill: #334155; }
    .value { font: 14px system-ui, sans-serif; fill: #475569; }
    .sub { font: 12px system-ui, sans-serif; fill: #64748b; }
  </style>
  <rect width="100%" height="100%" fill="#fafafa"/>
  <text x="16" y="28" class="title">Est. cost per 25-scenario eval run</text>
  <text x="16" y="46" class="sub">FX: 1 USD = 17.905 IDR (27 Jun 2026)</text>
  
    <text x="8" y="77.92" class="label">deepseek-v4-flash</text>
    <rect x="220" y="52" width="48.50615114235501" height="36" rx="4" fill="#2563eb"/>
    <text x="780" y="77.92" class="value">Rp 50</text>
    <text x="8" y="125.92" class="label">gemma-4-31b-it</text>
    <rect x="220" y="100" width="110.59402460456941" height="36" rx="4" fill="#16a34a"/>
    <text x="780" y="125.92" class="value">Rp 114</text>
    <text x="8" y="173.92" class="label">ling-2.6-1t</text>
    <rect x="220" y="148" width="112.53427065026362" height="36" rx="4" fill="#dc2626"/>
    <text x="780" y="173.92" class="value">Rp 116</text>
    <text x="8" y="221.92" class="label">gpt-oss-120b</text>
    <rect x="220" y="196" width="122.23550087873463" height="36" rx="4" fill="#9333ea"/>
    <text x="780" y="221.92" class="value">Rp 126</text>
    <text x="8" y="269.92" class="label">glm-4.7</text>
    <rect x="220" y="244" width="160.07029876977154" height="36" rx="4" fill="#ea580c"/>
    <text x="780" y="269.92" class="value">Rp 165</text>
    <text x="8" y="317.92" class="label">glm-4.5</text>
    <rect x="220" y="292" width="181.41300527240773" height="36" rx="4" fill="#0891b2"/>
    <text x="780" y="317.92" class="value">Rp 187</text>
    <text x="8" y="365.92" class="label">gemini-3.1-flash-lite</text>
    <rect x="220" y="340" width="315.2899824253075" height="36" rx="4" fill="#ca8a04"/>
    <text x="780" y="365.92" class="value">Rp 325</text>
    <text x="8" y="413.92" class="label">gemini-3-flash-preview</text>
    <rect x="220" y="388" width="552" height="36" rx="4" fill="#4f46e5"/>
    <text x="780" y="413.92" class="value">Rp 569</text>
</svg>