<?xml version="1.0" encoding="UTF-8"?>
<svg xmlns="http://www.w3.org/2000/svg" viewBox="0 0 960 756" width="960" height="756">
  <style>
    .title { font: 600 18px system-ui, sans-serif; fill: #0f172a; }
    .label { font: 14px system-ui, sans-serif; fill: #334155; }
    .value { font: 14px system-ui, sans-serif; fill: #475569; }
    .sub { font: 12px system-ui, sans-serif; fill: #64748b; }
  </style>
  <rect width="100%" height="100%" fill="#fafafa"/>
  <text x="16" y="28" class="title">Est. cost per 25-scenario eval run</text>
  <text x="16" y="46" class="sub">FX: 1 USD = 17.905 IDR (27 Jun 2026)</text>
  
    <text x="8" y="77.92" class="label">glm-4.7-flash</text>
    <rect x="220" y="52" width="37.83479789103691" height="36" rx="4" fill="#2563eb"/>
    <text x="780" y="77.92" class="value">Rp 39</text>
    <text x="8" y="125.92" class="label">nemotron-3-nano-30b-a3b</text>
    <rect x="220" y="100" width="44.62565905096661" height="36" rx="4" fill="#16a34a"/>
    <text x="780" y="125.92" class="value">Rp 46</text>
    <text x="8" y="173.92" class="label">deepseek-v4-flash</text>
    <rect x="220" y="148" width="48.50615114235501" height="36" rx="4" fill="#dc2626"/>
    <text x="780" y="173.92" class="value">Rp 50</text>
    <text x="8" y="221.92" class="label">mimo-v2.5-pro</text>
    <rect x="220" y="196" width="97.98242530755712" height="36" rx="4" fill="#9333ea"/>
    <text x="780" y="221.92" class="value">Rp 101</text>
    <text x="8" y="269.92" class="label">gemma-4-31b-it</text>
    <rect x="220" y="244" width="110.59402460456941" height="36" rx="4" fill="#ea580c"/>
    <text x="780" y="269.92" class="value">Rp 114</text>
    <text x="8" y="317.92" class="label">ling-2.6-1t</text>
    <rect x="220" y="292" width="112.53427065026362" height="36" rx="4" fill="#0891b2"/>
    <text x="780" y="317.92" class="value">Rp 116</text>
    <text x="8" y="365.92" class="label">gpt-oss-120b</text>
    <rect x="220" y="340" width="122.23550087873463" height="36" rx="4" fill="#ca8a04"/>
    <text x="780" y="365.92" class="value">Rp 126</text>
    <text x="8" y="413.92" class="label">qwen3.6-35b-a3b</text>
    <rect x="220" y="388" width="150.36906854130052" height="36" rx="4" fill="#4f46e5"/>
    <text x="780" y="413.92" class="value">Rp 155</text>
    <text x="8" y="461.92" class="label">glm-4.7</text>
    <rect x="220" y="436" width="160.07029876977154" height="36" rx="4" fill="#0d9488"/>
    <text x="780" y="461.92" class="value">Rp 165</text>
    <text x="8" y="509.92" class="label">glm-4.5</text>
    <rect x="220" y="484" width="181.41300527240773" height="36" rx="4" fill="#be185d"/>
    <text x="780" y="509.92" class="value">Rp 187</text>
    <text x="8" y="557.92" class="label">deepseek-v4-pro</text>
    <rect x="220" y="532" width="282.30579964850614" height="36" rx="4" fill="#65a30d"/>
    <text x="780" y="557.92" class="value">Rp 291</text>
    <text x="8" y="605.92" class="label">gemini-3.1-flash-lite</text>
    <rect x="220" y="580" width="315.2899824253075" height="36" rx="4" fill="#7c3aed"/>
    <text x="780" y="605.92" class="value">Rp 325</text>
    <text x="8" y="653.92" class="label">deepseek-v4-pro (OR)</text>
    <rect x="220" y="628" width="376.40773286467487" height="36" rx="4" fill="#2563eb"/>
    <text x="780" y="653.92" class="value">Rp 388</text>
    <text x="8" y="701.92" class="label">gemini-3-flash-preview</text>
    <rect x="220" y="676" width="552" height="36" rx="4" fill="#16a34a"/>
    <text x="780" y="701.92" class="value">Rp 569</text>
</svg>