<?xml version="1.0" encoding="UTF-8"?>
<svg xmlns="http://www.w3.org/2000/svg" viewBox="0 0 960 540" width="960" height="540">
  <style>
    .title { font: 600 18px system-ui, sans-serif; fill: #0f172a; }
    .axis { font: 13px system-ui, sans-serif; fill: #64748b; }
    .tick { font: 11px system-ui, sans-serif; fill: #94a3b8; }
    .dot-label { font: 12px system-ui, sans-serif; fill: #334155; }
    .ideal { font: 11px system-ui, sans-serif; fill: #16a34a; }
  </style>
  <rect width="100%" height="100%" fill="#fafafa"/>
  <text x="12" y="22" class="title">Quality vs price (trade-off)</text>
  <text x="884" y="64" text-anchor="end" class="ideal">ideal ↗</text>
  
    <line x1="72" y1="468" x2="888" y2="468" stroke="#e2e8f0" stroke-dasharray="4 4"/>
    <text x="64" y="472" text-anchor="end" class="tick">90</text>
    <line x1="72" y1="258" x2="888" y2="258" stroke="#e2e8f0" stroke-dasharray="4 4"/>
    <text x="64" y="262" text-anchor="end" class="tick">95</text>
    <line x1="72" y1="48" x2="888" y2="48" stroke="#e2e8f0" stroke-dasharray="4 4"/>
    <text x="64" y="52" text-anchor="end" class="tick">100</text>
  <line x1="72" y1="468" x2="888" y2="468" stroke="#cbd5e1"/>
  <line x1="72" y1="48" x2="72" y2="468" stroke="#cbd5e1"/>
  <text x="480" y="532" text-anchor="middle" class="axis">← lebih mahal · lebih murah →</text>
  <text x="18" y="258" transform="rotate(-90 18 258)" text-anchor="middle" class="axis">Composite score (90–100)</text>
  
    <circle cx="419.24716553287976" cy="96.71999999999986" r="9" fill="#2563eb" opacity="0.85"/>
    <text x="419.24716553287976" y="118.71999999999986" text-anchor="middle" class="dot-label">gemini-3.1-flash-lite</text>
    <circle cx="110.85714285714286" cy="96.71999999999986" r="9" fill="#16a34a" opacity="0.85"/>
    <text x="110.85714285714286" y="118.71999999999986" text-anchor="middle" class="dot-label">gemini-3-flash-preview</text>
    <circle cx="665.9591836734694" cy="140.40000000000015" r="9" fill="#dc2626" opacity="0.85"/>
    <text x="665.9591836734694" y="162.40000000000015" text-anchor="middle" class="dot-label">gemma-4-31b-it</text>
    <circle cx="604.281179138322" cy="145.4399999999997" r="9" fill="#9333ea" opacity="0.85"/>
    <text x="604.281179138322" y="167.4399999999997" text-anchor="middle" class="dot-label">glm-4.5</text>
    <circle cx="604.281179138322" cy="184.0799999999998" r="9" fill="#ea580c" opacity="0.85"/>
    <text x="604.281179138322" y="206.0799999999998" text-anchor="middle" class="dot-label">glm-4.7</text>
    <circle cx="665.9591836734694" cy="286.5600000000003" r="9" fill="#0891b2" opacity="0.85"/>
    <text x="665.9591836734694" y="308.5600000000003" text-anchor="middle" class="dot-label">ling-2.6-1t</text>
    <circle cx="665.9591836734694" cy="202.5600000000003" r="9" fill="#ca8a04" opacity="0.85"/>
    <text x="665.9591836734694" y="224.5600000000003" text-anchor="middle" class="dot-label">gpt-oss-120b</text>
    <circle cx="758.4761904761905" cy="165.59999999999985" r="9" fill="#4f46e5" opacity="0.85"/>
    <text x="758.4761904761905" y="187.59999999999985" text-anchor="middle" class="dot-label">deepseek-v4-flash</text>
</svg>