<?xml version="1.0" encoding="UTF-8"?>
<svg xmlns="http://www.w3.org/2000/svg" viewBox="0 0 960 660" width="960" height="660">
  <style>
    .title { font: 600 18px system-ui, sans-serif; fill: #0f172a; }
    .label { font: 14px system-ui, sans-serif; fill: #334155; }
    .value { font: 14px system-ui, sans-serif; fill: #475569; }
    .sub { font: 12px system-ui, sans-serif; fill: #64748b; }
  </style>
  <rect width="100%" height="100%" fill="#fafafa"/>
  <text x="16" y="28" class="title">Hard-25 strict pass (of 25 scenarios)</text>
  <text x="16" y="46" class="sub">Higher is better</text>
  
    <text x="8" y="77.92" class="label">gemini-3.1-flash-lite</text>
    <rect x="220" y="52" width="529.92" height="36" rx="4" fill="#2563eb"/>
    <text x="780" y="77.92" class="value">24/25</text>
    <text x="8" y="125.92" class="label">gemini-3-flash-preview</text>
    <rect x="220" y="100" width="529.92" height="36" rx="4" fill="#16a34a"/>
    <text x="780" y="125.92" class="value">24/25</text>
    <text x="8" y="173.92" class="label">gemma-4-31b-it</text>
    <rect x="220" y="148" width="529.92" height="36" rx="4" fill="#dc2626"/>
    <text x="780" y="173.92" class="value">24/25</text>
    <text x="8" y="221.92" class="label">glm-4.5</text>
    <rect x="220" y="196" width="485.76" height="36" rx="4" fill="#9333ea"/>
    <text x="780" y="221.92" class="value">22/25</text>
    <text x="8" y="269.92" class="label">glm-4.7</text>
    <rect x="220" y="244" width="485.76" height="36" rx="4" fill="#ea580c"/>
    <text x="780" y="269.92" class="value">22/25</text>
    <text x="8" y="317.92" class="label">ling-2.6-1t</text>
    <rect x="220" y="292" width="485.76" height="36" rx="4" fill="#0891b2"/>
    <text x="780" y="317.92" class="value">22/25</text>
    <text x="8" y="365.92" class="label">mimo-v2.5-pro</text>
    <rect x="220" y="340" width="485.76" height="36" rx="4" fill="#ca8a04"/>
    <text x="780" y="365.92" class="value">22/25</text>
    <text x="8" y="413.92" class="label">deepseek-v4-pro</text>
    <rect x="220" y="388" width="485.76" height="36" rx="4" fill="#4f46e5"/>
    <text x="780" y="413.92" class="value">22/25</text>
    <text x="8" y="461.92" class="label">gpt-oss-120b</text>
    <rect x="220" y="436" width="463.68" height="36" rx="4" fill="#0d9488"/>
    <text x="780" y="461.92" class="value">21/25</text>
    <text x="8" y="509.92" class="label">deepseek-v4-flash</text>
    <rect x="220" y="484" width="463.68" height="36" rx="4" fill="#be185d"/>
    <text x="780" y="509.92" class="value">21/25</text>
    <text x="8" y="557.92" class="label">deepseek-v4-pro (OR)</text>
    <rect x="220" y="532" width="419.52" height="36" rx="4" fill="#65a30d"/>
    <text x="780" y="557.92" class="value">19/25</text>
    <text x="8" y="605.92" class="label">nemotron-3-nano-30b-a3b</text>
    <rect x="220" y="580" width="331.2" height="36" rx="4" fill="#7c3aed"/>
    <text x="780" y="605.92" class="value">15/25</text>
</svg>