<?xml version="1.0" encoding="UTF-8"?>
<svg xmlns="http://www.w3.org/2000/svg" viewBox="0 0 720 376" width="720" height="376">
  <style>
    .title { font: 600 15px system-ui, sans-serif; fill: #0f172a; }
    .label { font: 12px system-ui, sans-serif; fill: #334155; }
    .value { font: 12px system-ui, sans-serif; fill: #475569; }
    .sub { font: 11px system-ui, sans-serif; fill: #64748b; }
  </style>
  <rect width="100%" height="100%" fill="#fafafa"/>
  <text x="12" y="22" class="title">OpenRouter throughput (completion tokens / sec)</text>
  <text x="12" y="36" class="sub">From activity CSV — higher is better</text>
  
    <text x="8" y="60.16" class="label">gpt-oss-120b</text>
    <rect x="200" y="40" width="360" height="28" rx="4" fill="#2563eb"/>
    <text x="568" y="60.16" class="value">282 t/s</text>
    <text x="8" y="98.16" class="label">gemini-3.1-flash-lite</text>
    <rect x="200" y="78" width="173.07419803424108" height="28" rx="4" fill="#16a34a"/>
    <text x="568" y="98.16" class="value">136 t/s</text>
    <text x="8" y="136.16" class="label">ling-2.6-1t</text>
    <rect x="200" y="116" width="98.85516988952892" height="28" rx="4" fill="#dc2626"/>
    <text x="568" y="136.16" class="value">78 t/s</text>
    <text x="8" y="174.16" class="label">deepseek-v4-flash</text>
    <rect x="200" y="154" width="95.67309933698459" height="28" rx="4" fill="#9333ea"/>
    <text x="568" y="174.16" class="value">75 t/s</text>
    <text x="8" y="212.16" class="label">gemini-3-flash-preview</text>
    <rect x="200" y="192" width="84.39308781787224" height="28" rx="4" fill="#ea580c"/>
    <text x="568" y="212.16" class="value">66 t/s</text>
    <text x="8" y="250.16" class="label">glm-4.5</text>
    <rect x="200" y="230" width="55.765272159326955" height="28" rx="4" fill="#0891b2"/>
    <text x="568" y="250.16" class="value">44 t/s</text>
    <text x="8" y="288.16" class="label">gemma-4-31b-it</text>
    <rect x="200" y="268" width="51.09886286495383" height="28" rx="4" fill="#ca8a04"/>
    <text x="568" y="288.16" class="value">40 t/s</text>
    <text x="8" y="326.16" class="label">glm-4.7</text>
    <rect x="200" y="306" width="32.3355174863453" height="28" rx="4" fill="#4f46e5"/>
    <text x="568" y="326.16" class="value">25 t/s</text>
</svg>