<?xml version="1.0" encoding="UTF-8"?>
<svg xmlns="http://www.w3.org/2000/svg" viewBox="0 0 960 468" width="960" height="468">
  <style>
    .title { font: 600 18px system-ui, sans-serif; fill: #0f172a; }
    .label { font: 14px system-ui, sans-serif; fill: #334155; }
    .value { font: 14px system-ui, sans-serif; fill: #475569; }
    .sub { font: 12px system-ui, sans-serif; fill: #64748b; }
  </style>
  <rect width="100%" height="100%" fill="#fafafa"/>
  <text x="16" y="28" class="title">OpenRouter throughput (completion tokens / sec)</text>
  <text x="16" y="46" class="sub">From activity CSV — higher is better (new models: eval-run cost only)</text>
  
    <text x="8" y="77.92" class="label">gpt-oss-120b</text>
    <rect x="220" y="52" width="552" height="36" rx="4" fill="#2563eb"/>
    <text x="780" y="77.92" class="value">282 t/s</text>
    <text x="8" y="125.92" class="label">gemini-3.1-flash-lite</text>
    <rect x="220" y="100" width="265.3804369858363" height="36" rx="4" fill="#16a34a"/>
    <text x="780" y="125.92" class="value">136 t/s</text>
    <text x="8" y="173.92" class="label">ling-2.6-1t</text>
    <rect x="220" y="148" width="151.57792716394434" height="36" rx="4" fill="#dc2626"/>
    <text x="780" y="173.92" class="value">78 t/s</text>
    <text x="8" y="221.92" class="label">deepseek-v4-flash</text>
    <rect x="220" y="196" width="146.69875231670972" height="36" rx="4" fill="#9333ea"/>
    <text x="780" y="221.92" class="value">75 t/s</text>
    <text x="8" y="269.92" class="label">gemini-3-flash-preview</text>
    <rect x="220" y="244" width="129.40273465407077" height="36" rx="4" fill="#ea580c"/>
    <text x="780" y="269.92" class="value">66 t/s</text>
    <text x="8" y="317.92" class="label">glm-4.5</text>
    <rect x="220" y="292" width="85.50675064430133" height="36" rx="4" fill="#0891b2"/>
    <text x="780" y="317.92" class="value">44 t/s</text>
    <text x="8" y="365.92" class="label">gemma-4-31b-it</text>
    <rect x="220" y="340" width="78.35158972626253" height="36" rx="4" fill="#ca8a04"/>
    <text x="780" y="365.92" class="value">40 t/s</text>
    <text x="8" y="413.92" class="label">glm-4.7</text>
    <rect x="220" y="388" width="49.58112681239613" height="36" rx="4" fill="#4f46e5"/>
    <text x="780" y="413.92" class="value">25 t/s</text>
</svg>