<?xml version="1.0" encoding="UTF-8"?>
<svg xmlns="http://www.w3.org/2000/svg" viewBox="0 0 960 516" width="960" height="516">
  <style>
    .title { font: 600 18px system-ui, sans-serif; fill: #0f172a; }
    .label { font: 14px system-ui, sans-serif; fill: #334155; }
    .value { font: 14px system-ui, sans-serif; fill: #475569; }
    .sub { font: 12px system-ui, sans-serif; fill: #64748b; }
  </style>
  <rect width="100%" height="100%" fill="#fafafa"/>
  <text x="16" y="28" class="title">OpenRouter unit price (IDR / request)</text>
  <text x="16" y="46" class="sub">Same measured prices as Parse-25 scorecard · FX 1 USD = 17.905 IDR · NOT agentic suite burn</text>
  
    <text x="8" y="77.92" class="label">deepseek-v4-flash</text>
    <rect x="220" y="52" width="48" height="36" rx="4" fill="#2563eb"/>
    <text x="780" y="77.92" class="value">Rp 2</text>
    <text x="8" y="125.92" class="label">mimo-v2.5-pro</text>
    <rect x="220" y="100" width="96" height="36" rx="4" fill="#16a34a"/>
    <text x="780" y="125.92" class="value">Rp 4</text>
    <text x="8" y="173.92" class="label">gemma-4-31b-it</text>
    <rect x="220" y="148" width="120" height="36" rx="4" fill="#dc2626"/>
    <text x="780" y="173.92" class="value">Rp 5</text>
    <text x="8" y="221.92" class="label">ling-2.6-1t</text>
    <rect x="220" y="196" width="120" height="36" rx="4" fill="#9333ea"/>
    <text x="780" y="221.92" class="value">Rp 5</text>
    <text x="8" y="269.92" class="label">glm-4.7</text>
    <rect x="220" y="244" width="168" height="36" rx="4" fill="#ea580c"/>
    <text x="780" y="269.92" class="value">Rp 7</text>
    <text x="8" y="317.92" class="label">glm-4.5</text>
    <rect x="220" y="292" width="168" height="36" rx="4" fill="#0891b2"/>
    <text x="780" y="317.92" class="value">Rp 7</text>
    <text x="8" y="365.92" class="label">deepseek-v4-pro</text>
    <rect x="220" y="340" width="288" height="36" rx="4" fill="#ca8a04"/>
    <text x="780" y="365.92" class="value">Rp 12</text>
    <text x="8" y="413.92" class="label">gemini-3.1-flash-lite</text>
    <rect x="220" y="388" width="312" height="36" rx="4" fill="#4f46e5"/>
    <text x="780" y="413.92" class="value">Rp 13</text>
    <text x="8" y="461.92" class="label">gemini-3-flash-preview</text>
    <rect x="220" y="436" width="552" height="36" rx="4" fill="#0d9488"/>
    <text x="780" y="461.92" class="value">Rp 23</text>
</svg>