<?xml version="1.0" encoding="UTF-8"?>
<svg xmlns="http://www.w3.org/2000/svg" viewBox="0 0 960 564" width="960" height="564">
  <style>
    .title { font: 600 18px system-ui, sans-serif; fill: #0f172a; }
    .label { font: 14px system-ui, sans-serif; fill: #334155; }
    .value { font: 14px system-ui, sans-serif; fill: #475569; }
    .sub { font: 12px system-ui, sans-serif; fill: #64748b; }
  </style>
  <rect width="100%" height="100%" fill="#fafafa"/>
  <text x="16" y="28" class="title">Mean scenario latency (agent + judge)</text>
  <text x="16" y="46" class="sub">Milliseconds — lower is better · from Rupiah-Pro suite traces</text>
  
    <text x="8" y="77.92" class="label">gemini-3.1-flash-lite</text>
    <rect x="220" y="52" width="247.86348663954192" height="36" rx="4" fill="#2563eb"/>
    <text x="780" y="77.92" class="value">43s</text>
    <text x="8" y="125.92" class="label">ling-2.6-1t</text>
    <rect x="220" y="100" width="292.04740034797874" height="36" rx="4" fill="#16a34a"/>
    <text x="780" y="125.92" class="value">51s</text>
    <text x="8" y="173.92" class="label">qwen3.6-35b-a3b</text>
    <rect x="220" y="148" width="302.49872922819924" height="36" rx="4" fill="#dc2626"/>
    <text x="780" y="173.92" class="value">52s</text>
    <text x="8" y="221.92" class="label">glm-4.5</text>
    <rect x="220" y="196" width="312.0516459573782" height="36" rx="4" fill="#9333ea"/>
    <text x="780" y="221.92" class="value">54s</text>
    <text x="8" y="269.92" class="label">gemini-3-flash-preview</text>
    <rect x="220" y="244" width="329.58953287100377" height="36" rx="4" fill="#ea580c"/>
    <text x="780" y="269.92" class="value">57s</text>
    <text x="8" y="317.92" class="label">deepseek-v4-flash</text>
    <rect x="220" y="292" width="333.1261165437694" height="36" rx="4" fill="#0891b2"/>
    <text x="780" y="317.92" class="value">58s</text>
    <text x="8" y="365.92" class="label">deepseek-v4-pro</text>
    <rect x="220" y="340" width="357.09956804955004" height="36" rx="4" fill="#ca8a04"/>
    <text x="780" y="365.92" class="value">62s</text>
    <text x="8" y="413.92" class="label">glm-4.7</text>
    <rect x="220" y="388" width="380.90862311035676" height="36" rx="4" fill="#4f46e5"/>
    <text x="780" y="413.92" class="value">66s</text>
    <text x="8" y="461.92" class="label">gemma-4-31b-it</text>
    <rect x="220" y="436" width="456.7046547195457" height="36" rx="4" fill="#0d9488"/>
    <text x="780" y="461.92" class="value">79s</text>
    <text x="8" y="509.92" class="label">mimo-v2.5-pro</text>
    <rect x="220" y="484" width="552" height="36" rx="4" fill="#be185d"/>
    <text x="780" y="509.92" class="value">96s</text>
</svg>