<?xml version="1.0" encoding="UTF-8"?>
<svg xmlns="http://www.w3.org/2000/svg" viewBox="0 0 960 560" width="960" height="560">
  <style>
    .title { font: 600 18px system-ui, sans-serif; fill: #0f172a; }
    .axis { font: 13px system-ui, sans-serif; fill: #64748b; }
    .tick { font: 11px system-ui, sans-serif; fill: #94a3b8; }
    .dot-label { font: 12px system-ui, sans-serif; fill: #334155; }
    .ideal { font: 700 13px system-ui, sans-serif; fill: #15803d; }
    .quad-label { font: 600 11px system-ui, sans-serif; fill: #64748b; }
  </style>
  <rect width="100%" height="100%" fill="#fafafa"/>
  <text x="12" y="22" class="title">Rupiah-Pro: quality vs unit price</text>
  
  <rect x="72" y="48" width="408" height="212" fill="#bbf7d0" opacity="0.55" rx="2"/>
  <rect x="480" y="48" width="408" height="212" fill="#fef3c7" opacity="0.35" rx="2"/>
  <rect x="72" y="260" width="408" height="212" fill="#e2e8f0" opacity="0.35" rx="2"/>
  <rect x="480" y="260" width="408" height="212" fill="#fecaca" opacity="0.35" rx="2"/>
  <line x1="480" y1="48" x2="480" y2="472" stroke="#64748b" stroke-width="1.5" stroke-dasharray="6 4"/>
  <line x1="72" y1="260" x2="888" y2="260" stroke="#64748b" stroke-width="1.5" stroke-dasharray="6 4"/>
  <text x="84" y="70" class="ideal">Ideal · high quality · low cost</text>
  <text x="492" y="70" class="quad-label">Premium · high quality · high cost</text>
  <text x="84" y="460" class="quad-label">Budget miss · low quality · low cost</text>
  <text x="492" y="460" class="quad-label">Avoid · low quality · high cost</text>
  
    <line x1="72" y1="472" x2="888" y2="472" stroke="#cbd5e1" stroke-dasharray="3 3" opacity="0.6"/>
    <text x="64" y="476" text-anchor="end" class="tick">55</text>
    <line x1="72" y1="260" x2="888" y2="260" stroke="#cbd5e1" stroke-dasharray="3 3" opacity="0.6"/>
    <text x="64" y="264" text-anchor="end" class="tick">78</text>
    <line x1="72" y1="48" x2="888" y2="48" stroke="#cbd5e1" stroke-dasharray="3 3" opacity="0.6"/>
    <text x="64" y="52" text-anchor="end" class="tick">100</text>
  
    <line x1="135.9498432601881" y1="48" x2="135.9498432601881" y2="472" stroke="#e2e8f0" stroke-dasharray="4 4"/>
    <text x="135.9498432601881" y="492" text-anchor="middle" class="tick">Rp 2</text>
    <line x1="487.6739811912226" y1="48" x2="487.6739811912226" y2="472" stroke="#e2e8f0" stroke-dasharray="4 4"/>
    <text x="487.6739811912226" y="492" text-anchor="middle" class="tick">Rp 13</text>
    <line x1="807.423197492163" y1="48" x2="807.423197492163" y2="472" stroke="#e2e8f0" stroke-dasharray="4 4"/>
    <text x="807.423197492163" y="492" text-anchor="middle" class="tick">Rp 23</text>
  <line x1="72" y1="472" x2="888" y2="472" stroke="#cbd5e1"/>
  <line x1="72" y1="48" x2="72" y2="472" stroke="#cbd5e1"/>
  <text x="480" y="550" text-anchor="middle" class="axis">IDR / request → (cheaper left · more expensive right)</text>
  <text x="18" y="260" transform="rotate(-90 18 260)" text-anchor="middle" class="axis">Rupiah-Pro score (55–100)</text>
  
    <circle cx="807.423197492163" cy="151.64444444444445" r="9" fill="#2563eb" opacity="0.85"/>
    <text x="807.423197492163" y="173.64444444444445" text-anchor="middle" class="dot-label">gemini-3-flash-preview</text>
    <circle cx="487.6739811912226" cy="160.12444444444452" r="9" fill="#16a34a" opacity="0.85"/>
    <text x="487.6739811912226" y="182.12444444444452" text-anchor="middle" class="dot-label">gemini-3.1-flash-lite</text>
    <circle cx="199.89968652037618" cy="162.0088888888888" r="9" fill="#dc2626" opacity="0.85"/>
    <text x="199.89968652037618" y="184.0088888888888" text-anchor="middle" class="dot-label">mimo-v2.5-pro</text>
    <circle cx="295.8244514106583" cy="178.96888888888896" r="9" fill="#9333ea" opacity="0.85"/>
    <text x="295.8244514106583" y="200.96888888888896" text-anchor="middle" class="dot-label">glm-4.5</text>
    <circle cx="231.8746081504702" cy="190.27555555555546" r="9" fill="#ea580c" opacity="0.85"/>
    <text x="231.8746081504702" y="212.27555555555546" text-anchor="middle" class="dot-label">gemma-4-31b-it</text>
    <circle cx="295.8244514106583" cy="193.10222222222228" r="9" fill="#0891b2" opacity="0.85"/>
    <text x="295.8244514106583" y="215.10222222222228" text-anchor="middle" class="dot-label">glm-4.7</text>
    <circle cx="231.8746081504702" cy="214.77333333333337" r="9" fill="#ca8a04" opacity="0.85"/>
    <text x="231.8746081504702" y="236.77333333333337" text-anchor="middle" class="dot-label">ling-2.6-1t</text>
    <circle cx="135.9498432601881" cy="274.1333333333333" r="9" fill="#4f46e5" opacity="0.85"/>
    <text x="135.9498432601881" y="296.1333333333333" text-anchor="middle" class="dot-label">deepseek-v4-flash</text>
    <circle cx="455.69905956112854" cy="283.55555555555554" r="9" fill="#0d9488" opacity="0.85"/>
    <text x="455.69905956112854" y="305.55555555555554" text-anchor="middle" class="dot-label">deepseek-v4-pro</text>
</svg>