<?xml version="1.0" encoding="UTF-8"?>
<svg xmlns="http://www.w3.org/2000/svg" viewBox="0 0 960 560" width="960" height="560">
  <style>
    .title { font: 600 18px system-ui, sans-serif; fill: #0f172a; }
    .axis { font: 13px system-ui, sans-serif; fill: #64748b; }
    .tick { font: 11px system-ui, sans-serif; fill: #94a3b8; }
    .dot-label { font: 12px system-ui, sans-serif; fill: #334155; }
    .ideal { font: 700 13px system-ui, sans-serif; fill: #15803d; }
    .quad-label { font: 600 11px system-ui, sans-serif; fill: #64748b; }
  </style>
  <rect width="100%" height="100%" fill="#fafafa"/>
  <text x="12" y="22" class="title">Rupiah-Pro: quality vs unit price</text>
  
  <rect x="72" y="48" width="408" height="212" fill="#bbf7d0" opacity="0.55" rx="2"/>
  <rect x="480" y="48" width="408" height="212" fill="#fef3c7" opacity="0.35" rx="2"/>
  <rect x="72" y="260" width="408" height="212" fill="#e2e8f0" opacity="0.35" rx="2"/>
  <rect x="480" y="260" width="408" height="212" fill="#fecaca" opacity="0.35" rx="2"/>
  <line x1="480" y1="48" x2="480" y2="472" stroke="#64748b" stroke-width="1.5" stroke-dasharray="6 4"/>
  <line x1="72" y1="260" x2="888" y2="260" stroke="#64748b" stroke-width="1.5" stroke-dasharray="6 4"/>
  <text x="84" y="70" class="ideal">Ideal · high quality · low cost</text>
  <text x="492" y="70" class="quad-label">Premium · high quality · high cost</text>
  <text x="84" y="460" class="quad-label">Budget miss · low quality · low cost</text>
  <text x="492" y="460" class="quad-label">Avoid · low quality · high cost</text>
  
    <line x1="72" y1="472" x2="888" y2="472" stroke="#cbd5e1" stroke-dasharray="3 3" opacity="0.6"/>
    <text x="64" y="476" text-anchor="end" class="tick">70</text>
    <line x1="72" y1="260" x2="888" y2="260" stroke="#cbd5e1" stroke-dasharray="3 3" opacity="0.6"/>
    <text x="64" y="264" text-anchor="end" class="tick">80</text>
    <line x1="72" y1="48" x2="888" y2="48" stroke="#cbd5e1" stroke-dasharray="3 3" opacity="0.6"/>
    <text x="64" y="52" text-anchor="end" class="tick">90</text>
  
    <line x1="72" y1="48" x2="72" y2="472" stroke="#e2e8f0" stroke-dasharray="4 4"/>
    <text x="72" y="492" text-anchor="middle" class="tick">Rp 0</text>
    <line x1="344" y1="48" x2="344" y2="472" stroke="#e2e8f0" stroke-dasharray="4 4"/>
    <text x="344" y="492" text-anchor="middle" class="tick">Rp 5</text>
    <line x1="616" y1="48" x2="616" y2="472" stroke="#e2e8f0" stroke-dasharray="4 4"/>
    <text x="616" y="492" text-anchor="middle" class="tick">Rp 10</text>
    <line x1="888" y1="48" x2="888" y2="472" stroke="#e2e8f0" stroke-dasharray="4 4"/>
    <text x="888" y="492" text-anchor="middle" class="tick">Rp 15</text>
  <line x1="72" y1="472" x2="888" y2="472" stroke="#cbd5e1"/>
  <line x1="72" y1="48" x2="72" y2="472" stroke="#cbd5e1"/>
  <text x="480" y="550" text-anchor="middle" class="axis">IDR / request → (cheaper left · more expensive right)</text>
  <text x="18" y="260" transform="rotate(-90 18 260)" text-anchor="middle" class="axis">Rupiah-Pro score (70–90, fixed)</text>
  
    <circle cx="779.2" cy="88.28000000000014" r="9" fill="#2563eb" opacity="0.85"/>
    <text x="779.2" y="110.28000000000014" text-anchor="middle" class="dot-label">gemini-3.1-flash-lite</text>
    <circle cx="289.6" cy="92.51999999999992" r="9" fill="#16a34a" opacity="0.85"/>
    <text x="289.6" y="114.51999999999992" text-anchor="middle" class="dot-label">mimo-v2.5-pro</text>
    <circle cx="452.8" cy="130.68000000000012" r="9" fill="#dc2626" opacity="0.85"/>
    <text x="452.8" y="152.68000000000012" text-anchor="middle" class="dot-label">glm-4.5</text>
    <circle cx="344" cy="156.11999999999983" r="9" fill="#9333ea" opacity="0.85"/>
    <text x="344" y="178.11999999999983" text-anchor="middle" class="dot-label">gemma-4-31b-it</text>
    <circle cx="452.8" cy="162.48000000000008" r="9" fill="#ea580c" opacity="0.85"/>
    <text x="452.8" y="184.48000000000008" text-anchor="middle" class="dot-label">glm-4.7</text>
    <circle cx="398.40000000000003" cy="162.48000000000008" r="9" fill="#0891b2" opacity="0.85"/>
    <text x="398.40000000000003" y="184.48000000000008" text-anchor="middle" class="dot-label">qwen3.6-35b-a3b</text>
    <circle cx="344" cy="211.24000000000007" r="9" fill="#ca8a04" opacity="0.85"/>
    <text x="344" y="233.24000000000007" text-anchor="middle" class="dot-label">ling-2.6-1t</text>
    <circle cx="180.8" cy="344.8" r="9" fill="#4f46e5" opacity="0.85"/>
    <text x="180.8" y="366.8" text-anchor="middle" class="dot-label">deepseek-v4-flash</text>
    <circle cx="724.8000000000001" cy="366" r="9" fill="#0d9488" opacity="0.85"/>
    <text x="724.8000000000001" y="388" text-anchor="middle" class="dot-label">deepseek-v4-pro</text>
</svg>