<?xml version="1.0" encoding="UTF-8"?>
<svg xmlns="http://www.w3.org/2000/svg" viewBox="0 0 960 564" width="960" height="564">
  <style>
    .title { font: 600 18px system-ui, sans-serif; fill: #0f172a; }
    .label { font: 14px system-ui, sans-serif; fill: #334155; }
    .value { font: 14px system-ui, sans-serif; fill: #475569; }
    .sub { font: 12px system-ui, sans-serif; fill: #64748b; }
  </style>
  <rect width="100%" height="100%" fill="#fafafa"/>
  <text x="16" y="28" class="title">Rupiah-Pro public score (v1)</text>
  <text x="16" y="46" class="sub">100 × (det/40)² × (ifBench/100) · 14 discriminative scenarios · higher is better</text>
  
    <text x="8" y="77.92" class="label">gemini-3-flash-preview</text>
    <rect x="220" y="52" width="491.28000000000003" height="36" rx="4" fill="#2563eb"/>
    <text x="780" y="77.92" class="value">89.0</text>
    <text x="8" y="125.92" class="label">gemini-3.1-flash-lite</text>
    <rect x="220" y="100" width="486.31199999999995" height="36" rx="4" fill="#16a34a"/>
    <text x="780" y="125.92" class="value">88.1</text>
    <text x="8" y="173.92" class="label">mimo-v2.5-pro</text>
    <rect x="220" y="148" width="485.208" height="36" rx="4" fill="#dc2626"/>
    <text x="780" y="173.92" class="value">87.9</text>
    <text x="8" y="221.92" class="label">glm-4.5</text>
    <rect x="220" y="196" width="475.272" height="36" rx="4" fill="#9333ea"/>
    <text x="780" y="221.92" class="value">86.1</text>
    <text x="8" y="269.92" class="label">gemma-4-31b-it</text>
    <rect x="220" y="244" width="468.648" height="36" rx="4" fill="#ea580c"/>
    <text x="780" y="269.92" class="value">84.9</text>
    <text x="8" y="317.92" class="label">glm-4.7</text>
    <rect x="220" y="292" width="466.99199999999996" height="36" rx="4" fill="#0891b2"/>
    <text x="780" y="317.92" class="value">84.6</text>
    <text x="8" y="365.92" class="label">ling-2.6-1t</text>
    <rect x="220" y="340" width="454.296" height="36" rx="4" fill="#ca8a04"/>
    <text x="780" y="365.92" class="value">82.3</text>
    <text x="8" y="413.92" class="label">deepseek-v4-flash</text>
    <rect x="220" y="388" width="419.52" height="36" rx="4" fill="#4f46e5"/>
    <text x="780" y="413.92" class="value">76.0</text>
    <text x="8" y="461.92" class="label">deepseek-v4-pro</text>
    <rect x="220" y="436" width="414" height="36" rx="4" fill="#0d9488"/>
    <text x="780" y="461.92" class="value">75.0</text>
    <text x="8" y="509.92" class="label">qwen3.6-35b-a3b</text>
    <rect x="220" y="484" width="343.344" height="36" rx="4" fill="#be185d"/>
    <text x="780" y="509.92" class="value">62.2</text>
</svg>